<svg version="1.2" xmlns="http://www.w3.org/2000/svg" viewBox="0 0 512 512" width="512" height="512">
	<title>2849820_pen_pencil_write_draw_design_icon-svg-svg</title>
	<style>
		.s0 { fill: #d96a7d } 
	</style>
	<g id="_1">
		<path id="Layer" fill-rule="evenodd" class="s0" d="m403.7 187.9q-1.2 0-2.3 0-1.2 0-2.3-0.1-1.2-0.1-2.3-0.2-1.2-0.1-2.3-0.3c-17.9-2.4-35.5-11.5-49.6-25.5-14-14.1-23.1-31.7-25.5-49.6-2.6-19.1 2.9-37.1 15.1-49.3 12.2-12.2 30.1-17.7 49.2-15.1 17.9 2.4 35.6 11.5 49.6 25.6 14.1 14.1 23.2 31.7 25.6 49.5 2.5 19.2-3 37.1-15.1 49.3-10.2 10.2-24.5 15.7-40.1 15.7zm-37.5-47.4c9.3 9.4 21.1 15.6 32.3 17 9.9 1.4 18.5-1 24-6.6 5.6-5.5 8-14.1 6.6-24-1.5-11.2-7.7-23-17-32.3-18.1-18.1-43.9-22.9-56.4-10.5-12.5 12.5-7.7 38.3 10.5 56.4z"/>
		<path id="Layer" class="s0" d="m189.4 402.2q-1.2 0-2.3 0-1.2 0-2.3-0.1-1.2-0.1-2.3-0.2-1.2-0.1-2.3-0.3c-17.9-2.4-35.5-11.5-49.6-25.5-14-14.1-23.1-31.7-25.5-49.6-2.6-19.1 2.9-37.1 15.1-49.3 2.8-2.8 6.6-4.4 10.6-4.4 4 0 7.8 1.6 10.6 4.4 2.8 2.8 4.4 6.7 4.4 10.6 0 4-1.6 7.8-4.4 10.6-5.6 5.6-7.9 14.2-6.6 24.1 1.5 11.2 7.7 23 17 32.3 18.2 18.2 44 23 56.4 10.5 2.8-2.9 6.7-4.5 10.7-4.6 4 0 7.9 1.6 10.7 4.4 2.9 2.9 4.5 6.7 4.4 10.8 0 4-1.6 7.8-4.5 10.6-10.3 10.2-24.5 15.7-40.1 15.7z"/>
		<path id="Layer" class="s0" d="m71.7 450c-2.3 0-4.5-0.5-6.5-1.5-2-0.9-3.8-2.4-5.2-4.1-1.4-1.8-2.4-3.8-2.9-6-0.5-2.2-0.5-4.5 0-6.7 0.2-1.1 6.4-28.9 15-59.6 16.2-57.7 25.9-72.7 32.6-79.4l229.8-229.8c2.8-2.9 6.6-4.5 10.6-4.5 4.1-0.1 7.9 1.5 10.8 4.3 2.8 2.9 4.4 6.8 4.4 10.8-0.1 4-1.7 7.8-4.6 10.6l-229.8 229.8c-0.9 0.9-9.2 10.4-24.9 66.3-3.5 12.5-6.7 24.7-9.1 34.6 10-2.5 22.2-5.6 34.8-9.1 55.7-15.7 65.2-24 66.1-24.9l229.8-229.8c2.8-2.8 6.6-4.4 10.6-4.4 3.9 0 7.8 1.6 10.6 4.4 2.8 2.8 4.4 6.6 4.4 10.6 0 4-1.6 7.8-4.4 10.6l-229.8 229.8c-6.7 6.7-21.7 16.4-79.4 32.6-30.6 8.6-58.5 14.8-59.7 15.1q-0.4 0.1-0.8 0.1-0.4 0.1-0.8 0.1-0.4 0.1-0.8 0.1-0.4 0-0.8 0z"/>
		<path id="Layer" class="s0" d="m391.6 135.1q-1.4 0-2.9-0.3-1.4-0.3-2.8-0.9-1.4-0.5-2.6-1.4-1.2-0.8-2.3-1.8l-5-5c-2.7-2.9-4.2-6.6-4.2-10.6 0-3.9 1.6-7.7 4.4-10.5 2.8-2.7 6.5-4.3 10.5-4.4 3.9 0 7.7 1.5 10.5 4.3l5 5c2.1 2.1 3.6 4.7 4.1 7.6 0.6 2.9 0.3 6-0.8 8.7-1.1 2.7-3.1 5.1-5.5 6.7-2.5 1.7-5.4 2.6-8.4 2.6z"/>
	</g>
</svg>