<svg version="1.2" xmlns="http://www.w3.org/2000/svg" viewBox="0 0 512 512" width="512" height="512">
	<title>7106362_layout_infographic_data_ui_element_icon-svg</title>
	<style>
		.s0 { fill: #b2e381 } 
	</style>
	<g id="_27-Layout">
		<g id="g2152">
			<path id="path2150" fill-rule="evenodd" class="s0" d="m512 15v482c0 8.3-6.7 15-15 15h-482c-8.3 0-15-6.7-15-15v-482c0-8.3 6.7-15 15-15h482c8.3 0 15 6.7 15 15zm-482 467h157.1v-283.9h-157.1zm452-452h-452v138.2h452zm-264.9 452h264.9v-283.9h-264.9z"/>
		</g>
		<g id="g2156">
			<path id="path2154" fill-rule="evenodd" class="s0" d="m458.2 351.5c0 48.5-39.4 87.9-87.9 87.9-48.5 0-87.9-39.4-87.9-87.9 0-48.4 39.4-87.9 87.9-87.9 48.5 0 87.9 39.5 87.9 87.9zm-32 15h-55.9c-8.3 0-15-6.7-15-15v-55.9c-24.7 6.6-42.9 29.2-42.9 55.9 0 32 26 57.9 57.9 57.9 26.7 0 49.3-18.2 55.9-42.9zm-40.9-70.9v40.9h40.9c-5.3-19.9-21-35.6-40.9-40.9z"/>
		</g>
		<g id="g2160">
			<path id="path2158" fill-rule="evenodd" class="s0" d="m232.6 99.1c0-25.5 20.8-46.3 46.3-46.3 25.5 0 46.3 20.8 46.3 46.3 0 25.5-20.8 46.2-46.3 46.2-25.5 0-46.3-20.7-46.3-46.2zm30 0c0 8.9 7.3 16.2 16.3 16.2 9 0 16.3-7.3 16.3-16.2 0-9-7.3-16.3-16.3-16.3-9 0-16.3 7.3-16.3 16.3z"/>
		</g>
		<g id="g2164">
			<path id="path2162" fill-rule="evenodd" class="s0" d="m355.1 99.1c0-25.5 20.8-46.3 46.3-46.3 25.5 0 46.2 20.8 46.2 46.3 0 25.5-20.7 46.2-46.2 46.2-25.5 0-46.3-20.7-46.3-46.2zm30 0c0 8.9 7.3 16.2 16.3 16.2 8.9 0 16.2-7.3 16.2-16.2 0-9-7.3-16.3-16.2-16.3-9 0-16.3 7.3-16.3 16.3z"/>
		</g>
		<g id="g2168">
			<path id="path2166" class="s0" d="m79.3 311h58.5c8.2 0 15-6.8 15-15 0-8.3-6.8-15-15-15h-58.5c-8.2 0-15 6.7-15 15 0 8.2 6.8 15 15 15z"/>
		</g>
		<g id="g2172">
			<path id="path2170" class="s0" d="m137.8 336.5h-58.5c-8.2 0-15 6.7-15 15 0 8.3 6.8 15 15 15h58.4c8.3 0 15-6.7 15-15 0-8.3-6.7-15-15-15z"/>
		</g>
		<g id="g2176">
			<path id="path2174" class="s0" d="m137.8 392.1h-58.5c-8.2 0-15 6.7-15 15 0 8.3 6.8 15 15 15h58.4c8.3 0 15-6.7 15-15 0-8.3-6.7-15-15-15z"/>
		</g>
	</g>
</svg>