<svg version="1.2" xmlns="http://www.w3.org/2000/svg" viewBox="0 0 24 24" width="120" height="120">
	<title>icons8-linkedin-svg</title>
	<style>
		.s0 { fill: #d3d3d3 } 
	</style>
	<path id="Layer" fill-rule="evenodd" class="s0" d="m21 21h-18v-18h18zm-12-11h-2.5v7h2.5zm0.1-2.5c0-0.7-0.5-1.2-1.3-1.2-0.9 0-1.4 0.5-1.4 1.2 0 0.7 0.5 1.2 1.3 1.2 0.9 0 1.4-0.5 1.4-1.2zm8.9 5.7c0-2.2-1-3.2-2.2-3.2-1.2 0-1.9 0.4-2.2 1v-1h-2.5v7h2.5c0 0 0-3.7 0-3.8 0-1.2 0.8-1.3 1.1-1.3 0.2 0 0.9 0.2 0.9 1.3v3.8h2.4z"/>
</svg>