<svg version="1.2" xmlns="http://www.w3.org/2000/svg" viewBox="0 0 24 24" width="120" height="120">
	<title>icons8-github-svg</title>
	<style>
		.s0 { fill: #d3d3d3 } 
	</style>
	<path id="Layer" class="s0" d="m10.9 2.1c-4.6 0.5-8.3 4.2-8.8 8.7-0.6 5 2.5 9.3 6.9 10.7v-2.3c0 0-0.4 0.1-0.9 0.1-1.4 0-2-1.2-2.1-1.9-0.1-0.4-0.3-0.7-0.6-1-0.3-0.1-0.4-0.1-0.4-0.2 0-0.2 0.3-0.2 0.4-0.2 0.6 0 1.1 0.7 1.3 1 0.5 0.8 1.1 1 1.4 1 0.4 0 0.7-0.1 0.9-0.2 0.1-0.7 0.4-1.4 1-1.8-2.3-0.5-4-1.8-4-4 0-1.1 0.5-2.2 1.2-3-0.1-0.2-0.2-0.7-0.2-1.4 0-0.4 0-1 0.3-1.6 0 0 1.4 0 2.8 1.3 0.5-0.2 1.2-0.3 1.9-0.3 0.7 0 1.4 0.1 2 0.3 1.3-1.3 2.8-1.3 2.8-1.3 0.2 0.6 0.2 1.2 0.2 1.6 0 0.8-0.1 1.2-0.2 1.4 0.7 0.8 1.2 1.8 1.2 3 0 2.2-1.7 3.5-4 4 0.6 0.5 1 1.4 1 2.3v3.3c4.1-1.3 7-5.1 7-9.5 0-6-5.1-10.7-11.1-10z"/>
</svg>